<svg transform="scale(1)" version="1.1" id="vvFkfz9s1o" xmlns="http://www.w3.org/2000/svg" xmlns:xlink="http://www.w3.org/1999/xlink" x="0px" y="0px" width="500px" height="500px" viewBox="0 0 500 500" xml:space="preserve" class="pbimage_pbimage__wrapper__image__0LEis false"><title>Chatting</title><style type="text/css"> .st0{fill:#FFDC32;} .st1{fill:#000001;} .st2{fill:#005596;} .st3{fill:#FFB0CC;} .st4{fill:#FFFFFF;}
 .st4{fill:#FFFFFF;}
 .st3{fill:#FFB0CC;}
 .st2{fill:#005596;}
 .st1{fill:#000001;}
 .st0{fill:#FFDC32;}</style><g id="hands"><g id="color"><path class="st0" d="M169.07,183.63c-9.77,12.55-19.53,25.1-29.3,37.65c-3.97,5.1-8.09,10.58-8.68,17.02
			c-0.3,3.28,0.36,6.6,0.06,9.88c-0.9,9.67-9.86,17.16-10.71,26.84c-0.47,5.35,1.64,10.75,0.73,16.04c-1,5.86-5.58,10.84-5.7,16.79
			c-0.09,4.94,2.95,9.47,3.24,14.4c0.2,3.41-0.93,6.74-1.6,10.1c-0.68,3.35-0.83,7.09,1.08,9.93l19.46,75.47l64.92,0.32
			c0,0,2.23-4.63,2.42-5.07c2.27-8.61,4.56-17.4,3.99-26.28c-0.9-14.19-9.03-27.53-7.94-42.42c-0.38-9.21,0.48-18.47,2.53-27.46
			c1.45-6.32,3.48-12.49,5.03-18.79c1.87-7.61,3.04-15.38,4.54-23.31c3.62-8.36,4.98-17.5,6.31-26.51c0.19-1.26,0.37-2.55,0.18-3.81
			c-0.58-3.9-4.77-6.51-8.71-6.41c-3.94,0.09-7.54,2.28-10.5,4.89c-3.73,3.29-6.77,7.33-8.98,11.79c-1.51,3.05-2.63,6.27-3.8,9.46
			c-3.48,9.45-7.45,18.7-11.43,27.95c-1.59,3.7-3.18,7.4-4.77,11.1l0.25-86.06c0,0-0.44-29.56-0.37-29.71
			c0.05-1.09,0.09-2.18,0.14-3.27c0.01-0.21,0.02-0.42-0.07-0.62C171.25,183.16,170.72,183.01,169.07,183.63z"></path><path class="st0" d="M329.07,183.48c9.77,12.55,19.53,25.1,29.3,37.65c3.97,5.1,8.09,10.58,8.68,17.02
			c0.3,3.28-0.36,6.6-0.06,9.88c0.9,9.67,9.86,17.16,10.71,26.84c0.47,5.35-1.64,10.75-0.73,16.04c1,5.86,5.58,10.84,5.7,16.79
			c0.09,4.94-2.95,9.47-3.24,14.4c-0.2,3.41,0.93,6.74,1.6,10.1c0.68,3.35,0.83,7.09-1.08,9.93l-19.46,75.47l-64.92,0.32
			c0,0-2.23-4.63-2.42-5.07c-2.27-8.61-4.56-17.4-3.99-26.28c0.9-14.19,9.03-27.53,7.94-42.42c0.38-9.21-0.48-18.47-2.53-27.46
			c-1.45-6.32-3.48-12.49-5.03-18.79c-1.87-7.61-3.04-15.38-4.54-23.31c-3.62-8.36-4.98-17.5-6.31-26.51
			c-0.19-1.26-0.37-2.55-0.18-3.81c0.58-3.9,4.77-6.51,8.71-6.41c3.94,0.09,7.54,2.28,10.5,4.89c3.73,3.29,6.77,7.33,8.98,11.79
			c1.51,3.05,2.63,6.27,3.8,9.46c3.48,9.45,7.45,18.7,11.43,27.95c1.59,3.7,3.18,7.4,4.77,11.1l-0.25-86.06
			c0,0,0.44-29.56,0.37-29.71c-0.05-1.09-0.09-2.18-0.14-3.27c-0.01-0.21-0.02-0.42,0.07-0.62
			C326.89,183.01,327.42,182.87,329.07,183.48z"></path></g><g id="line_1_"><path class="st1" d="M137.65,418.75c-0.45,0-0.85-0.3-0.97-0.75l-19.42-75.31c-1.67-2.6-2.04-6.05-1.13-10.54
			c0.17-0.87,0.38-1.75,0.58-2.62c0.58-2.49,1.14-4.84,1-7.22c-0.13-2.18-0.83-4.28-1.57-6.5c-0.85-2.55-1.73-5.19-1.68-7.98
			c0.07-3.5,1.57-6.64,3.02-9.68c1.17-2.45,2.27-4.76,2.7-7.25c0.46-2.7,0.1-5.43-0.29-8.32c-0.33-2.49-0.68-5.06-0.45-7.64
			c0.45-5.07,3.01-9.55,5.49-13.87c2.47-4.3,4.79-8.37,5.22-12.97c0.14-1.57,0.06-3.13-0.03-4.79c-0.09-1.66-0.18-3.37-0.03-5.08
			c0.64-6.95,5.21-12.82,8.89-17.54l29.3-37.65c0.34-0.44,0.97-0.51,1.4-0.17c0.44,0.34,0.51,0.97,0.17,1.4l-29.3,37.65
			c-3.52,4.52-7.89,10.14-8.47,16.5c-0.14,1.57-0.06,3.13,0.03,4.79c0.09,1.66,0.18,3.37,0.03,5.09c-0.47,5.04-3.02,9.48-5.48,13.78
			c-2.48,4.33-4.82,8.42-5.23,13.05c-0.21,2.36,0.11,4.71,0.44,7.2c0.39,2.91,0.79,5.92,0.28,8.92c-0.47,2.76-1.69,5.31-2.86,7.78
			c-1.42,2.98-2.76,5.8-2.82,8.86c-0.04,2.45,0.74,4.81,1.57,7.31c0.75,2.25,1.52,4.57,1.66,7.01c0.16,2.68-0.45,5.28-1.05,7.8
			c-0.2,0.85-0.4,1.7-0.57,2.55c-0.82,4.03-0.51,7.03,0.93,9.18c0.06,0.09,0.11,0.2,0.14,0.31l19.46,75.47
			c0.14,0.54-0.18,1.08-0.72,1.22C137.82,418.74,137.73,418.75,137.65,418.75z"></path><path class="st1" d="M202.46,419.45c-0.14,0-0.28-0.03-0.41-0.09c-0.5-0.23-0.73-0.82-0.5-1.32c5.7-12.59,7.35-26.97,4.65-40.51
			c-0.65-3.27-1.56-6.54-2.44-9.72c-0.68-2.46-1.39-5-1.98-7.54c-2.97-12.83-3.06-26.4-0.27-39.24c0-0.01,4.28-18.46,8.59-36.91
			c2.16-9.22,4.32-18.45,5.97-25.37c1.64-6.89,2.36-9.92,2.84-11.25l-0.01,0c-0.08-1.79-0.17-3.82-1.18-5.29
			c-0.46-0.66-1.13-1.25-1.99-1.74c-3.26-1.87-7.93-1.54-11.9,0.84c-3.73,2.24-6.53,5.81-9.07,9.29
			c-8.53,20.08-21.29,50.29-21.88,52.11c-0.03,0.17-0.11,0.34-0.24,0.48c-1.89,2.12-4.13,4.53-6.87,6.38
			c-2.09,1.4-5.37,3.03-9.16,2.94c-0.55-0.02-0.99-0.48-0.97-1.03s0.48-0.95,1.03-0.97c3.27,0.14,6.14-1.36,7.98-2.6
			c2.54-1.71,4.67-4.01,6.47-6.03c0.82-2.44,4.74-11.91,21.84-52.17c0.03-0.07,0.07-0.14,0.11-0.2c2.68-3.67,5.64-7.46,9.72-9.92
			c3.65-2.19,9.22-3.57,13.93-0.86c1.12,0.65,2.01,1.43,2.63,2.34c1.34,1.94,1.45,4.38,1.54,6.34c0.01,0.17-0.03,0.34-0.11,0.49
			c-0.84,2.54-12.77,53.86-17.34,73.57c-2.73,12.54-2.63,25.8,0.27,38.35c0.58,2.5,1.28,5.02,1.96,7.46
			c0.89,3.21,1.82,6.52,2.48,9.86c2.78,13.95,1.08,28.76-4.79,41.73C203.2,419.23,202.84,419.45,202.46,419.45z"></path><path class="st1" d="M168.58,301.35c-0.32,0-0.63-0.15-0.82-0.43c-1.63-2.32-2.73-5.02-3.18-7.81c-0.32-1.95,0.5-2.74,1.02-3.04
			c0.48-0.28,1.09-0.11,1.37,0.37c0.28,0.48,0.11,1.09-0.37,1.37c-0.04,0.03-0.15,0.31-0.04,0.98c0.41,2.49,1.39,4.91,2.84,6.99
			c0.32,0.45,0.21,1.08-0.25,1.39C168.98,301.29,168.78,301.35,168.58,301.35z"></path><path class="st1" d="M165.32,265.18c-0.52,0-0.96-0.4-1-0.92c-0.46-5.99-1.52-10.69-3.34-14.8c-1.54-3.48-4.43-8.27-9.48-11.26
			c-0.48-0.28-0.63-0.9-0.35-1.37c0.28-0.48,0.9-0.63,1.37-0.35c4.36,2.59,7.92,6.8,10.29,12.18c1.88,4.27,3.03,9.32,3.5,15.46
			c0.04,0.55-0.37,1.03-0.92,1.07C165.37,265.18,165.34,265.18,165.32,265.18z"></path><path class="st1" d="M163.55,246.88c-0.15,0-0.3-0.03-0.44-0.1c-0.5-0.24-0.7-0.84-0.46-1.34c1.48-3.04,3.2-5.97,5.11-8.71
			c0.32-0.45,0.94-0.56,1.39-0.25c0.45,0.32,0.56,0.94,0.25,1.39c-1.85,2.65-3.52,5.49-4.95,8.43
			C164.28,246.67,163.92,246.88,163.55,246.88z"></path><path class="st1" d="M166.77,266.21c-0.14,0-0.29-0.03-0.42-0.09c-0.5-0.23-0.72-0.83-0.48-1.33l0.5-1.07
			c0.56-1.2,1.12-2.39,1.68-3.59c0.23-0.5,0.83-0.72,1.33-0.49c0.5,0.23,0.72,0.83,0.49,1.33c-0.56,1.21-1.12,2.4-1.68,3.61
			l-0.5,1.07C167.51,266,167.15,266.21,166.77,266.21z"></path><path class="st1" d="M211.34,272.81c-0.02,0-0.05,0-0.07,0c-3.08-0.21-8.63-1.21-11.1-5.61c-1.83-3.27-1.51-7.54,0.98-13.07
			c1.14-2.51,2.6-5.39,4.85-7.64c2.48-2.48,5.59-3.8,8.55-3.64c0.55,0.03,0.97,0.5,0.94,1.05c-0.03,0.55-0.5,0.97-1.05,0.94
			c-2.39-0.13-4.95,0.98-7.03,3.06c-2.02,2.02-3.38,4.7-4.45,7.04c-2.21,4.91-2.56,8.59-1.06,11.27c2.01,3.57,6.81,4.41,9.5,4.59
			c0.55,0.04,0.97,0.51,0.93,1.07C212.3,272.41,211.86,272.81,211.34,272.81z"></path><path class="st1" d="M360.49,418.6c-0.08,0-0.17-0.01-0.25-0.03c-0.53-0.14-0.86-0.68-0.72-1.22l19.46-75.47
			c0.03-0.11,0.08-0.21,0.14-0.31c1.44-2.14,1.75-5.15,0.93-9.17c-0.17-0.86-0.37-1.71-0.57-2.56c-0.59-2.52-1.2-5.12-1.05-7.8
			c0.14-2.44,0.92-4.77,1.67-7.01c0.83-2.5,1.62-4.86,1.57-7.31c-0.06-3.07-1.4-5.88-2.82-8.86c-1.17-2.46-2.39-5.01-2.86-7.78
			c-0.52-3-0.11-6.01,0.28-8.92c0.33-2.49,0.65-4.84,0.44-7.2c-0.41-4.64-2.75-8.72-5.23-13.05c-2.46-4.3-5.01-8.75-5.48-13.78
			c-0.16-1.71-0.06-3.43,0.03-5.09c0.09-1.66,0.18-3.23,0.03-4.79c-0.58-6.36-4.96-11.98-8.47-16.5l-29.3-37.65
			c-0.34-0.44-0.26-1.06,0.17-1.4c0.44-0.34,1.06-0.26,1.4,0.17l29.3,37.65c3.68,4.72,8.25,10.6,8.89,17.54
			c0.16,1.71,0.06,3.43-0.03,5.09c-0.09,1.66-0.18,3.23-0.03,4.79c0.43,4.6,2.76,8.67,5.22,12.97c2.48,4.33,5.04,8.8,5.49,13.87
			c0.23,2.58-0.12,5.15-0.45,7.64c-0.39,2.89-0.75,5.62-0.29,8.32c0.43,2.49,1.53,4.81,2.7,7.26c1.45,3.04,2.95,6.19,3.02,9.68
			c0.05,2.8-0.83,5.43-1.68,7.98c-0.74,2.22-1.44,4.32-1.57,6.5c-0.14,2.39,0.41,4.74,1,7.22c0.21,0.87,0.41,1.75,0.58,2.62
			c0.91,4.49,0.54,7.94-1.13,10.54l-19.42,75.31C361.34,418.3,360.94,418.6,360.49,418.6z"></path><path class="st1" d="M295.68,419.31c-0.38,0-0.75-0.22-0.91-0.59c-5.87-12.96-7.57-27.78-4.79-41.73
			c0.66-3.34,1.59-6.66,2.48-9.86c0.68-2.44,1.38-4.96,1.96-7.46c2.9-12.54,3-25.81,0.27-38.36c-4.56-19.69-16.5-71.01-17.34-73.55
			c-0.08-0.15-0.11-0.32-0.11-0.49c0.09-1.96,0.2-4.4,1.54-6.33c0.63-0.91,1.51-1.69,2.63-2.34c4.71-2.71,10.29-1.33,13.93,0.86
			c4.09,2.45,7.04,6.25,9.72,9.92c0.04,0.06,0.08,0.13,0.11,0.2c17.11,40.27,21.02,49.73,21.84,52.17c2.23,2.5,4.18,4.48,6.47,6.03
			c1.84,1.24,4.76,2.72,7.98,2.6c0.52,0.01,1.01,0.42,1.03,0.97c0.02,0.55-0.42,1.01-0.97,1.03c-3.79,0.08-7.07-1.54-9.16-2.94
			c-2.75-1.86-4.98-4.27-6.87-6.38c-0.12-0.14-0.2-0.3-0.24-0.48c-0.59-1.83-13.35-32.03-21.88-52.11
			c-2.54-3.48-5.34-7.05-9.07-9.29c-3.97-2.39-8.65-2.71-11.91-0.84c-0.86,0.5-1.53,1.08-1.99,1.74c-1.01,1.46-1.1,3.49-1.18,5.28
			l-0.01,0c0.48,1.33,1.2,4.36,2.84,11.25c1.65,6.92,3.82,16.14,5.97,25.37c4.31,18.45,8.59,36.9,8.59,36.9
			c2.79,12.85,2.7,26.42-0.27,39.25c-0.59,2.54-1.29,5.08-1.98,7.54c-0.88,3.17-1.79,6.45-2.44,9.72
			c-2.7,13.54-1.05,27.92,4.65,40.51c0.23,0.5,0,1.1-0.5,1.32C295.96,419.28,295.82,419.31,295.68,419.31z"></path><path class="st1" d="M329.56,301.21c-0.2,0-0.4-0.06-0.57-0.18c-0.45-0.32-0.56-0.94-0.25-1.39c1.46-2.08,2.44-4.5,2.84-6.99
			c0.11-0.68-0.01-0.96-0.04-0.98c-0.48-0.28-0.64-0.89-0.37-1.37c0.28-0.48,0.89-0.64,1.37-0.37c0.52,0.3,1.34,1.09,1.02,3.04
			c-0.45,2.79-1.55,5.49-3.18,7.81C330.18,301.06,329.87,301.21,329.56,301.21z"></path><path class="st1" d="M332.82,265.03c-0.03,0-0.05,0-0.08,0c-0.55-0.04-0.96-0.52-0.92-1.07c0.47-6.13,1.62-11.19,3.5-15.46
			c2.37-5.38,5.93-9.59,10.29-12.18c0.47-0.28,1.09-0.13,1.37,0.35c0.28,0.48,0.12,1.09-0.35,1.37c-5.05,3-7.95,7.78-9.48,11.26
			c-1.82,4.11-2.88,8.82-3.34,14.8C333.78,264.63,333.34,265.03,332.82,265.03z"></path><path class="st1" d="M334.59,246.74c-0.37,0-0.73-0.21-0.9-0.56c-1.43-2.95-3.1-5.79-4.95-8.44c-0.32-0.45-0.21-1.08,0.25-1.39
			c0.45-0.32,1.08-0.2,1.39,0.25c1.91,2.73,3.63,5.66,5.11,8.71c0.24,0.5,0.04,1.1-0.46,1.34
			C334.89,246.71,334.74,246.74,334.59,246.74z"></path><path class="st1" d="M331.37,266.06c-0.38,0-0.74-0.21-0.91-0.58l-0.43-0.91c-0.59-1.25-1.17-2.5-1.75-3.76
			c-0.23-0.5-0.01-1.1,0.49-1.33c0.5-0.23,1.1-0.01,1.33,0.49c0.58,1.25,1.16,2.5,1.75,3.75l0.43,0.92c0.23,0.5,0.02,1.09-0.48,1.33
			C331.66,266.03,331.51,266.06,331.37,266.06z"></path><path class="st1" d="M286.8,272.66c-0.52,0-0.96-0.4-1-0.93c-0.04-0.55,0.38-1.03,0.93-1.07c2.68-0.18,7.48-1.02,9.5-4.59
			c1.5-2.67,1.15-6.36-1.06-11.27c-1.06-2.35-2.42-5.02-4.45-7.04c-2.08-2.08-4.64-3.19-7.03-3.06c-0.55,0.02-1.02-0.39-1.05-0.94
			c-0.03-0.55,0.39-1.02,0.94-1.05c2.94-0.16,6.07,1.16,8.55,3.64c2.25,2.25,3.72,5.12,4.85,7.63c2.49,5.53,2.81,9.81,0.98,13.07
			c-2.47,4.39-8.02,5.4-11.1,5.61C286.84,272.66,286.82,272.66,286.8,272.66z"></path></g></g><g id="phone"><g id="colors"><path class="st2" d="M172.21,117.72h153.25l0.8-0.28c0,0-0.22-20.49,0.02-20.7c-1.45-2.68-1.8-5.94-3.67-8.35
			c-0.91-1.17-2.13-2.07-3.37-2.9c-3.08-2.07-6.53-3.9-10.25-3.94c0,0-121.77,0.08-121.43,0.07c-7.58,0.71-14.38,6.69-16.04,14.12
			c-0.57,2.54-0.58,5.17-0.54,7.78C171.07,107.97,171.29,112.41,172.21,117.72z"></path><circle class="st3" cx="185.56" cy="168.78" r="9.62"></circle><circle class="st3" cx="311.06" cy="206.23" r="9.62"></circle><path class="st4" d="M227.87,99.63L227.87,99.63c0-1.31,1.06-2.38,2.38-2.38H266c1.31,0,2.38,1.06,2.38,2.38l0,0
			c0,1.31-1.06,2.37-2.38,2.37h-35.75C228.93,102.01,227.87,100.94,227.87,99.63z"></path></g><g id="line"><path class="st2" d="M171.4,301.87c-0.55,0-1-0.45-1-1V98.69c0-9.97,8.12-18.09,18.09-18.09h120.76c9.97,0,18.09,8.12,18.09,18.09
			v201.39c0,0.55-0.45,1-1,1s-1-0.45-1-1V98.69c0-8.87-7.22-16.09-16.09-16.09H188.49c-8.87,0-16.09,7.22-16.09,16.09v202.18
			C172.4,301.42,171.95,301.87,171.4,301.87z"></path><path class="st2" d="M325.46,118.72H172.21c-0.55,0-1-0.45-1-1s0.45-1,1-1h153.25c0.55,0,1,0.45,1,1S326.01,118.72,325.46,118.72z
			"></path><path class="st2" d="M278.61,146.47h-73.14c-0.55,0-1-0.45-1-1v-24.64c0-0.55,0.45-1,1-1s1,0.45,1,1v23.64h71.14v-22.73
			c0-0.55,0.45-1,1-1s1,0.45,1,1v23.73C279.61,146.02,279.16,146.47,278.61,146.47z"></path><path class="st2" d="M278.38,168.84h-78.47c-0.43,0-0.81-0.27-0.95-0.68c-0.14-0.41,0-0.86,0.34-1.12l5.56-4.23l-0.16-12.33
			c0-0.27,0.1-0.53,0.29-0.72c0.19-0.19,0.44-0.3,0.71-0.3h72.68c0.55,0,1,0.45,1,1v17.37
			C279.38,168.39,278.93,168.84,278.38,168.84z M202.87,166.84h74.51v-15.37h-70.67l0.16,11.82c0,0.32-0.14,0.62-0.39,0.81
			L202.87,166.84z"></path><path class="st2" d="M297.28,206.27h-78.11c-0.54,0-0.99-0.43-1-0.98l-0.4-17.34c-0.01-0.27,0.1-0.53,0.28-0.72
			c0.19-0.19,0.45-0.3,0.72-0.3h72.2c0.55,0,1,0.45,1,1v12.59l5.87,3.91c0.37,0.24,0.53,0.7,0.4,1.12
			C298.11,205.98,297.72,206.27,297.28,206.27z M220.15,204.27h73.83l-3.56-2.38c-0.28-0.19-0.45-0.5-0.45-0.83v-12.13h-70.18
			L220.15,204.27z"></path><path class="st2" d="M185.56,179.4c-5.86,0-10.62-4.76-10.62-10.62c0-5.86,4.76-10.62,10.62-10.62s10.62,4.76,10.62,10.62
			C196.18,174.64,191.42,179.4,185.56,179.4z M185.56,160.16c-4.75,0-8.62,3.87-8.62,8.62s3.87,8.62,8.62,8.62s8.62-3.87,8.62-8.62
			S190.31,160.16,185.56,160.16z"></path><path class="st2" d="M311.06,216.85c-5.86,0-10.62-4.76-10.62-10.62s4.76-10.62,10.62-10.62s10.62,4.76,10.62,10.62
			S316.92,216.85,311.06,216.85z M311.06,197.61c-4.75,0-8.62,3.87-8.62,8.62s3.87,8.62,8.62,8.62s8.62-3.87,8.62-8.62
			S315.81,197.61,311.06,197.61z"></path></g></g><g id="text-2"><g id="Colors"><polygon class="st2" points="50.04,237.3 50.04,175.3 159.96,175.3 146.79,183.33 146.79,237.3 		"></polygon><polygon class="st3" points="46.54,233.8 46.54,171.8 156.46,171.8 143.29,179.83 143.29,233.8 		"></polygon></g><g id="line_3_"><path class="st1" d="M132.71,186h-77.9c-0.55,0-1-0.45-1-1s0.45-1,1-1h77.9c0.55,0,1,0.45,1,1S133.26,186,132.71,186z"></path><path class="st1" d="M123.18,197.33H62.94c-0.55,0-1-0.45-1-1s0.45-1,1-1h60.24c0.55,0,1,0.45,1,1S123.73,197.33,123.18,197.33z"></path><path class="st1" d="M132.16,209.12H55.04c-0.55,0-1-0.45-1-1s0.45-1,1-1h77.12c0.55,0,1,0.45,1,1S132.71,209.12,132.16,209.12z"></path><path class="st1" d="M121.07,221H64.19c-0.55,0-1-0.45-1-1s0.45-1,1-1h56.88c0.55,0,1,0.45,1,1S121.62,221,121.07,221z"></path></g></g><g id="text-1"><g id="colors_1_"><polygon class="st2" points="453.46,147.8 453.46,209.8 343.54,209.8 356.71,201.77 356.71,147.8 		"></polygon><polygon class="st3" points="449.46,144.3 449.46,206.3 339.54,206.3 352.71,198.27 352.71,144.3 		"></polygon></g><g id="line_2_"><path class="st1" d="M441.19,159.1h-77.9c-0.55,0-1-0.45-1-1s0.45-1,1-1h77.9c0.55,0,1,0.45,1,1S441.74,159.1,441.19,159.1z"></path><path class="st1" d="M433.06,170.43h-60.24c-0.55,0-1-0.45-1-1s0.45-1,1-1h60.24c0.55,0,1,0.45,1,1S433.61,170.43,433.06,170.43z"></path><path class="st1" d="M440.96,182.22h-77.12c-0.55,0-1-0.45-1-1s0.45-1,1-1h77.12c0.55,0,1,0.45,1,1S441.51,182.22,440.96,182.22z"></path><path class="st1" d="M431.81,194.1h-56.88c-0.55,0-1-0.45-1-1s0.45-1,1-1h56.88c0.55,0,1,0.45,1,1S432.36,194.1,431.81,194.1z"></path></g></g></svg>